HIERARCHY
ROOT Hips
{
    OFFSET   0.000000   0.000000   0.000000
    CHANNELS 6 Xposition Yposition Zposition Zrotation Xrotation Yrotation
    JOINT Chest
    {
        OFFSET   0.000000   8.007230   0.000000
        CHANNELS 3 Zrotation Xrotation Yrotation
        JOINT Chest2
        {
            OFFSET   0.000000  22.077100   0.000000
            CHANNELS 3 Zrotation Xrotation Yrotation
            JOINT Neck
            {
                OFFSET   0.000000  23.254800   0.000000
                CHANNELS 3 Zrotation Xrotation Yrotation
                JOINT Head
                {
                    OFFSET   0.000010  14.370000   1.956600
                    CHANNELS 3 Zrotation Xrotation Yrotation
                    End Site
                    {
                        OFFSET   0.000000  19.566000   0.000000
                    }
                }
            }
            JOINT LeftCollar
            {
                OFFSET   3.911900  19.017000  -0.467062
                CHANNELS 3 Zrotation Xrotation Yrotation
                JOINT LeftShoulder
                {
                    OFFSET  10.383700   0.000000   0.000000
                    CHANNELS 3 Zrotation Xrotation Yrotation
                    JOINT LeftElbow
                    {
                        OFFSET  26.662100   0.001193   0.000835
                        CHANNELS 3 Zrotation Xrotation Yrotation
                        JOINT LeftWrist
                        {
                            OFFSET  28.869000  -0.000058  -0.000075
                            CHANNELS 3 Zrotation Xrotation Yrotation
                            JOINT LeftFinger0
                            {
                                OFFSET   2.044660  -2.323460   3.252850
                                CHANNELS 3 Zrotation Xrotation Yrotation
                                JOINT LeftFinger01
                                {
                                    OFFSET   3.088130   0.000000   0.000000
                                    CHANNELS 3 Zrotation Xrotation Yrotation
                                    JOINT LeftFinger02
                                    {
                                        OFFSET   2.639450   0.000000   0.000000
                                        CHANNELS 3 Zrotation Xrotation Yrotation
                                        End Site
                                        {
                                            OFFSET   2.582190   0.000000   0.000000
                                        }
                                    }
                                }
                            }
                            JOINT LeftFinger1
                            {
                                OFFSET   8.364480   0.000000   3.252850
                                CHANNELS 3 Zrotation Xrotation Yrotation
                                JOINT LeftFinger11
                                {
                                    OFFSET   4.646920   0.000000   0.000000
                                    CHANNELS 3 Zrotation Xrotation Yrotation
                                    JOINT LeftFinger12
                                    {
                                        OFFSET   2.323460   0.000000   0.000000
                                        CHANNELS 3 Zrotation Xrotation Yrotation
                                        End Site
                                        {
                                            OFFSET   2.273050   0.000000   0.000000
                                        }
                                    }
                                }
                            }
                            JOINT LeftFinger2
                            {
                                OFFSET   8.364490   0.000016   1.078090
                                CHANNELS 3 Zrotation Xrotation Yrotation
                                JOINT LeftFinger21
                                {
                                    OFFSET   5.111620   0.000000   0.000000
                                    CHANNELS 3 Zrotation Xrotation Yrotation
                                    JOINT LeftFinger22
                                    {
                                        OFFSET   2.788150   0.000012   0.000000
                                        CHANNELS 3 Zrotation Xrotation Yrotation
                                        End Site
                                        {
                                            OFFSET   2.727660   0.000000   0.000000
                                        }
                                    }
                                }
                            }
                            JOINT LeftFinger3
                            {
                                OFFSET   7.899780   0.000014  -1.078090
                                CHANNELS 3 Zrotation Xrotation Yrotation
                                JOINT LeftFinger31
                                {
                                    OFFSET   4.646930   0.000000   0.000000
                                    CHANNELS 3 Zrotation Xrotation Yrotation
                                    JOINT LeftFinger32
                                    {
                                        OFFSET   2.323470   0.000000   0.000000
                                        CHANNELS 3 Zrotation Xrotation Yrotation
                                        End Site
                                        {
                                            OFFSET   2.273050   0.000000   0.000000
                                        }
                                    }
                                }
                            }
                            JOINT LeftFinger4
                            {
                                OFFSET   7.435090   0.000000  -3.252850
                                CHANNELS 3 Zrotation Xrotation Yrotation
                                JOINT LeftFinger41
                                {
                                    OFFSET   3.717550   0.000000   0.000000
                                    CHANNELS 3 Zrotation Xrotation Yrotation
                                    JOINT LeftFinger42
                                    {
                                        OFFSET   1.858770   0.000000   0.000000
                                        CHANNELS 3 Zrotation Xrotation Yrotation
                                        End Site
                                        {
                                            OFFSET   1.818440   0.000000   0.000000
                                        }
                                    }
                                }
                            }
                        }
                    }
                }
            }
            JOINT RightCollar
            {
                OFFSET  -3.911900  19.017000  -0.467063
                CHANNELS 3 Zrotation Xrotation Yrotation
                JOINT RightShoulder
                {
                    OFFSET -10.383700   0.000023   0.000000
                    CHANNELS 3 Zrotation Xrotation Yrotation
                    JOINT RightElbow
                    {
                        OFFSET -26.662100   0.001246   0.001011
                        CHANNELS 3 Zrotation Xrotation Yrotation
                        JOINT RightWrist
                        {
                            OFFSET -28.869000  -0.000026  -0.000078
                            CHANNELS 3 Zrotation Xrotation Yrotation
                            JOINT RightFinger0
                            {
                                OFFSET  -2.044660  -2.323490   3.252850
                                CHANNELS 3 Zrotation Xrotation Yrotation
                                JOINT RightFinger01
                                {
                                    OFFSET  -3.088130   0.000000   0.000000
                                    CHANNELS 3 Zrotation Xrotation Yrotation
                                    JOINT RightFinger02
                                    {
                                        OFFSET  -2.639460   0.000000   0.000000
                                        CHANNELS 3 Zrotation Xrotation Yrotation
                                        End Site
                                        {
                                            OFFSET  -2.582190   0.000000   0.000000
                                        }
                                    }
                                }
                            }
                            JOINT RightFinger1
                            {
                                OFFSET  -8.364480   0.000000   3.252850
                                CHANNELS 3 Zrotation Xrotation Yrotation
                                JOINT RightFinger11
                                {
                                    OFFSET  -4.646920   0.000000   0.000000
                                    CHANNELS 3 Zrotation Xrotation Yrotation
                                    JOINT RightFinger12
                                    {
                                        OFFSET  -2.323470   0.000000   0.000000
                                        CHANNELS 3 Zrotation Xrotation Yrotation
                                        End Site
                                        {
                                            OFFSET  -2.273050   0.000000   0.000000
                                        }
                                    }
                                }
                            }
                            JOINT RightFinger2
                            {
                                OFFSET  -8.364480   0.000000   1.078090
                                CHANNELS 3 Zrotation Xrotation Yrotation
                                JOINT RightFinger21
                                {
                                    OFFSET  -5.111620   0.000000   0.000000
                                    CHANNELS 3 Zrotation Xrotation Yrotation
                                    JOINT RightFinger22
                                    {
                                        OFFSET  -2.788160   0.000000   0.000000
                                        CHANNELS 3 Zrotation Xrotation Yrotation
                                        End Site
                                        {
                                            OFFSET  -2.727660   0.000000   0.000000
                                        }
                                    }
                                }
                            }
                            JOINT RightFinger3
                            {
                                OFFSET  -7.899780   0.000000  -1.078090
                                CHANNELS 3 Zrotation Xrotation Yrotation
                                JOINT RightFinger31
                                {
                                    OFFSET  -4.646930   0.000000   0.000000
                                    CHANNELS 3 Zrotation Xrotation Yrotation
                                    JOINT RightFinger32
                                    {
                                        OFFSET  -2.323470   0.000000   0.000000
                                        CHANNELS 3 Zrotation Xrotation Yrotation
                                        End Site
                                        {
                                            OFFSET  -2.273050   0.000000   0.000000
                                        }
                                    }
                                }
                            }
                            JOINT RightFinger4
                            {
                                OFFSET  -7.435090   0.000000  -3.252850
                                CHANNELS 3 Zrotation Xrotation Yrotation
                                JOINT RightFinger41
                                {
                                    OFFSET  -3.717550   0.000000   0.000000
                                    CHANNELS 3 Zrotation Xrotation Yrotation
                                    JOINT RightFinger42
                                    {
                                        OFFSET  -1.858760   0.000000   0.000000
                                        CHANNELS 3 Zrotation Xrotation Yrotation
                                        End Site
                                        {
                                            OFFSET  -1.818440   0.000000   0.000000
                                        }
                                    }
                                }
                            }
                        }
                    }
                }
            }
        }
    }
    JOINT LeftHip
    {
        OFFSET   9.783010   0.000000   0.000000
        CHANNELS 3 Zrotation Xrotation Yrotation
        JOINT LeftKnee
        {
            OFFSET   0.000073 -41.789100   0.001749
            CHANNELS 3 Zrotation Xrotation Yrotation
            JOINT LeftAnkle
            {
                OFFSET   0.000111 -41.133200  -0.000179
                CHANNELS 3 Zrotation Xrotation Yrotation
                JOINT LeftToe
                {
                    OFFSET   0.000000  -6.358960  14.674500
                    CHANNELS 3 Zrotation Xrotation Yrotation
                    End Site
                    {
                        OFFSET   0.000000   0.000000   3.913200
                    }
                }
            }
        }
    }
    JOINT RightHip
    {
        OFFSET  -9.783010   0.000000   0.000000
        CHANNELS 3 Zrotation Xrotation Yrotation
        JOINT RightKnee
        {
            OFFSET   0.000424 -41.789200   0.005205
            CHANNELS 3 Zrotation Xrotation Yrotation
            JOINT RightAnkle
            {
                OFFSET   0.000000 -41.133200  -0.000155
                CHANNELS 3 Zrotation Xrotation Yrotation
                JOINT RightToe
                {
                    OFFSET   0.000000  -6.358960  14.674500
                    CHANNELS 3 Zrotation Xrotation Yrotation
                    End Site
                    {
                        OFFSET   0.000000   0.000000   3.913200
                    }
                }
            }
        }
    }
}
MOTION
Frames: 5
Frame Time:   0.016667
 -2.047400  89.593100  -3.872960  -4.255720  -8.981480  -8.653030   1.152730   6.123180   1.270730   2.186680  12.269400   2.437640   0.888149  -0.578759   0.014993   1.459570  -1.172950   3.801320  -6.813980  -3.440450   0.626753 -72.167800  18.685400  -1.144590  -2.062200  -4.714970 -16.595300  16.367200 -13.094600   8.762170  47.584200  44.721200 -79.146600 -31.686800   0.001663   0.014353 -10.843400   0.000831   0.006167 -37.684600   5.823010  -7.493060 -31.145100  -0.000925  -0.001281 -21.798100   0.004454  -0.008668 -31.282400  -2.222670   3.628570 -47.029800  -0.003216  -0.006570 -31.321800   0.000111  -0.014567 -31.352200  -2.225070   3.625910 -47.134500   0.000935  -0.013096 -31.391600   0.001283   0.000423 -40.593600  -2.766350   3.223630 -61.007800   0.002667  -0.001007 -40.630800   0.008988  -0.005947  12.166200  -0.985605   8.414430  68.739300  15.233800  -8.733510  -0.788867 -10.586700  19.080600 -12.450300  -6.033640  -0.573440 -39.060800  32.742200  63.374400  31.500000   0.006031  -0.003624  10.750000  -0.001980  -0.008430  32.595000   6.654560  10.272600  27.158600  -0.001966  -0.010479  19.011000  -0.008661  -0.007864  28.369900  -0.515116  -0.968026  34.798100   0.000446  -0.008161  23.175500  -0.000585  -0.009023  28.246000  -0.513094  -0.969126  33.765100  -0.008784  -0.001515  22.487500  -0.000301  -0.000940  34.428200  -0.622003  -0.907371  51.649700   0.008368   0.001237  34.398700   0.005663   0.004351   3.007020  11.167500   3.988080   1.482100   0.089581   8.104620  -2.047610  -2.747520   4.086080   0.000000   0.000000  -0.000000   5.821100   6.140320  -1.037300  -2.257340   6.982080  -7.710260   2.439770  -6.491830   5.846160  -0.000000   0.000000   0.000000
 -2.040520  89.593100  -3.849670  -4.253590  -8.987960  -8.633620   1.152440   6.123110   1.272950   2.185850  12.269400   2.442180   0.895866  -0.593955   0.014980   1.472260  -1.203710   3.791990  -6.820700  -3.443230   0.628751 -72.179600  18.686300  -1.135080  -2.052970  -4.699890 -16.594900  16.389700 -13.096000   8.766400  47.573000  44.710600 -79.128200 -31.688500   0.001673   0.014352 -10.844500   0.000837   0.006172 -37.687900   5.822790  -7.489870 -31.147500  -0.000929  -0.001279 -21.801300   0.004451  -0.008669 -31.285800  -2.222690   3.631860 -47.034900  -0.003216  -0.006562 -31.325200   0.000106  -0.014567 -31.355800  -2.225110   3.629170 -47.139900   0.000933  -0.013093 -31.395200   0.001278   0.000433 -40.596200  -2.769100   3.226520 -61.011700   0.002664  -0.000999 -40.633600   0.008983  -0.005945  12.165100  -0.977957   8.416370  68.758800  15.259300  -8.701620  -0.778125 -10.615800  19.033500 -12.465800  -6.014470  -0.583102 -39.059200  32.757000  63.409500  31.507800   0.006041  -0.003660  10.753900  -0.001973  -0.008431  32.606200   6.659870  10.276200  27.167400  -0.001953  -0.010475  19.017200  -0.008664  -0.007873  28.369800  -0.519696  -0.970295  34.823000   0.000441  -0.008147  23.192100  -0.000581  -0.009013  28.246100  -0.517645  -0.971414  33.775500  -0.008791  -0.001523  22.494500  -0.000320  -0.000945  34.435200  -0.623585  -0.909437  51.660200   0.008380   0.001232  34.405700   0.005665   0.004342   2.997520  11.170600   3.987890   1.480380   0.121805   8.094490  -2.042370  -2.775660   4.081350  -0.000000   0.000000  -0.000000   5.820300   6.154770  -1.033590  -2.254330   6.995810  -7.718300   2.419840  -6.469480   5.817200  -0.000000   0.000000   0.000000
 -2.029410  89.593000  -3.810540  -4.251030  -9.003630  -8.602950   1.151940   6.123050   1.276530   2.184440  12.269300   2.449450   0.909011  -0.618913   0.014949   1.493890  -1.254170   3.773460  -6.833400  -3.452960   0.633546 -72.199600  18.692200  -1.120600  -2.037390  -4.684810 -16.594500  16.422100 -13.102500   8.772460  47.561800  44.699900 -79.109800 -31.693900   0.001682   0.014350 -10.847000   0.000846   0.006181 -37.697800   5.822610  -7.483610 -31.155300  -0.000936  -0.001278 -21.808700   0.004449  -0.008669 -31.292800  -2.222700   3.638210 -47.045500  -0.003216  -0.006543 -31.332300   0.000087  -0.014567 -31.362800  -2.225220   3.635510 -47.150500   0.000928  -0.013085 -31.402200   0.001264   0.000459 -40.601900  -2.774470   3.232110 -61.020300   0.002655  -0.000978 -40.639600   0.008969  -0.005941  12.164200  -0.970280   8.430080  68.777000  15.309900  -8.651510  -0.758487 -10.647900  18.939300 -12.481800  -5.971780  -0.600895 -39.049300  32.775700  63.465000  31.526500   0.006060  -0.003696  10.763200  -0.001962  -0.008439  32.617400   6.665190  10.279900  27.178000  -0.001924  -0.010471  19.024600  -0.008673  -0.007900  28.369500  -0.530399  -0.982065  34.868900   0.000430  -0.008113  23.222700  -0.000571  -0.008985  28.246200  -0.528266  -0.983233  33.790700  -0.008811  -0.001543  22.504600  -0.000368  -0.000956  34.451600  -0.631445  -0.920318  51.685000   0.008409   0.001217  34.422200   0.005669   0.004317   2.981560  11.185300   3.987860   1.478050   0.158398   8.078810  -2.032600  -2.817150   4.073520  -0.000000   0.000000   0.000000   5.819260   6.184230  -1.025200  -2.249370   7.017670  -7.733170   2.384430  -6.432160   5.768570   0.000000   0.000000   0.000000
 -2.021090  89.593000  -3.778680  -4.249350  -9.026090  -8.581940   1.151350   6.127090   1.279750   2.182730  12.277400   2.455880   0.919992  -0.638452   0.014902   1.512020  -1.293510   3.750650  -6.847030  -3.472470   0.640807 -72.216600  18.715200  -1.110220  -2.022080  -4.690350 -16.590500  16.439300 -13.121200   8.775530  47.557000  44.709100 -79.136600 -31.705200   0.001682   0.014374 -10.850700   0.000849   0.006187 -37.718000   5.822800  -7.474480 -31.171600  -0.000943  -0.001281 -21.820300   0.004452  -0.008668 -31.302500  -2.222630   3.647190 -47.059800  -0.003216  -0.006513 -31.341800   0.000047  -0.014567 -31.371600  -2.225370   3.644520 -47.163600   0.000922  -0.013073 -31.411000   0.001242   0.000501 -40.610000  -2.782210   3.240010 -61.033000   0.002640  -0.000946 -40.648000   0.008945  -0.005933  12.175100  -0.987376   8.462720  68.774400  15.360000  -8.620900  -0.735223 -10.645900  18.837700 -12.481500  -5.918870  -0.618385 -39.026900  32.781000  63.506600  31.557000   0.006077  -0.003678  10.778400  -0.001955  -0.008463  32.621000   6.655610  10.263400  27.180000  -0.001885  -0.010469  19.026000  -0.008686  -0.007946  28.373300  -0.550308  -1.017800  34.919200   0.000414  -0.008061  23.256200  -0.000557  -0.008941  28.245600  -0.547995  -1.019070  33.799300  -0.008841  -0.001575  22.510400  -0.000441  -0.000974  34.478500  -0.654982  -0.953515  51.726000   0.008453   0.001194  34.449400   0.005675   0.004278   2.967840  11.217100   3.988760   1.475460   0.163496   8.068640  -2.022140  -2.837840   4.067400  -0.000000   0.000000   0.000000   5.818980   6.217770  -1.013500  -2.249120   7.034020  -7.746160   2.351080  -6.400940   5.726000   0.000000   0.000000   0.000000
 -2.013510  89.592900  -3.746160  -4.248940  -9.054950  -8.562980   1.150730   6.135380   1.281630   2.181220  12.294000   2.459660   0.931581  -0.656858   0.014852   1.531130  -1.330580   3.727720  -6.861850  -3.496060   0.649121 -72.232300  18.756200  -1.104960  -2.006410  -4.702610 -16.580600  16.446600 -13.134900   8.776770  47.556800  44.728600 -79.186800 -31.715900   0.001681   0.014411 -10.854300   0.000854   0.006197 -37.738800   5.823340  -7.468440 -31.188400  -0.000953  -0.001284 -21.831900   0.004454  -0.008667 -31.311800  -2.222550   3.653100 -47.073800  -0.003215  -0.006474 -31.351100   0.000000  -0.014567 -31.380000  -2.225560   3.650460 -47.176100   0.000913  -0.013056 -31.419300   0.001212   0.000556 -40.617800  -2.787320   3.245220 -61.045300   0.002620  -0.000905 -40.656100   0.008913  -0.005923  12.200300  -1.022280   8.512800  68.764900  15.435200  -8.587760  -0.704687 -10.645800  18.705300 -12.472100  -5.845390  -0.638480 -38.994500  32.774000  63.537000  31.587100   0.006098  -0.003661  10.793500  -0.001943  -0.008500  32.623900   6.644940  10.246900  27.180300  -0.001834  -0.010466  19.026200  -0.008703  -0.008005  28.379300  -0.564093  -1.044040  34.966400   0.000393  -0.007997  23.287600  -0.000539  -0.008885  28.245100  -0.561655  -1.045370  33.803200  -0.008880  -0.001614  22.513000  -0.000530  -0.000995  34.503100  -0.672239  -0.977896  51.763300   0.008507   0.001166  34.474300   0.005682   0.004227   2.955250  11.260500   3.989820   1.472060   0.164227   8.060190  -2.011290  -2.854270   4.061250   0.000000   0.000000   0.000000   5.818640   6.260400  -0.999922  -2.251500   7.047220  -7.764860   2.315770  -6.372130   5.688690   0.000000   0.000000  -0.000000
